<?xml version="1.0" encoding="UTF-8"?>
<svg width="198px" height="189px" viewBox="0 0 198 189" version="1.1" xmlns="http://www.w3.org/2000/svg" xmlns:xlink="http://www.w3.org/1999/xlink">
    <!-- Generator: Sketch 52.6 (67491) - http://www.bohemiancoding.com/sketch -->
    <title>Group 8</title>
    <desc>Created with Sketch.</desc>
    <g id="R2M-Design" stroke="none" stroke-width="1" fill="none" fill-rule="evenodd">
        <g id="Insikt" transform="translate(-686.000000, -120.000000)" fill="#FDB913">
            <g id="Group-8" transform="translate(686.000000, 120.000000)">
                <polygon id="Fill-1" style="mix-blend-mode: multiply;" points="35 10.9687032 53.5714806 1 65 22.2968516 56.9047806 30"></polygon>
                <polygon id="Fill-2" style="mix-blend-mode: multiply;" points="131.428585 0 150 4.82142857 136.071511 27 124 24.1070464"></polygon>
                <polygon id="Fill-3" style="mix-blend-mode: multiply;" points="166 62.8000318 190.228612 53 198 71.2000318 172.4 74"></polygon>
                <polygon id="Fill-4" style="mix-blend-mode: multiply;" points="0 73 26.0847093 80.9333227 27 94 0 94"></polygon>
                <polygon id="Fill-5" style="mix-blend-mode: multiply;" points="35.0821709 127 50 140.880578 35.0822274 157 17 150.731359"></polygon>
                <polygon id="Fill-6" style="mix-blend-mode: multiply;" points="174.619129 119 197 132.722304 190.809548 148 167 134.720367"></polygon>
                <path d="M86.173639,36 L121.642101,36.765 L140.739473,50.3949532 L160,82.9750355 L159.236852,111.382508 L146.081509,138.607552 L127.011958,146.966374 L127.470393,157.161778 L123.733685,164.734151 L127.184166,169.845834 L123.368426,175.216688 L126.741763,181.724573 L119.040966,187.852555 L85.7220972,189 L79.1659941,182.489582 L84.0657493,172.921697 L80.2499434,170.610853 C79.9955356,169.473068 84.3201099,166.040358 84.0657021,164.902573 L77.6396982,158.365446 L76.5640859,147.264996 L76.5666793,147.264996 L63.2604985,135.93009 L50.105212,110.235017 L44,77.2374417 L57.5367945,50.777547 L86.173639,36 Z" id="Fill-7" style="mix-blend-mode: multiply;"></path>
            </g>
        </g>
    </g>
</svg>