<?xml version="1.0" encoding="UTF-8"?>
<svg width="320px" height="154px" viewBox="0 0 320 154" version="1.1" xmlns="http://www.w3.org/2000/svg" xmlns:xlink="http://www.w3.org/1999/xlink">
    <!-- Generator: Sketch 52.6 (67491) - http://www.bohemiancoding.com/sketch -->
    <title>Group 40</title>
    <desc>Created with Sketch.</desc>
    <defs>
        <polygon id="path-1" points="0 168 316.698 168 316.698 0.682 0 0.682"></polygon>
    </defs>
    <g id="R2M-Design" stroke="none" stroke-width="1" fill="none" fill-rule="evenodd">
        <g id="Startsida-" transform="translate(-558.000000, -1790.000000)">
            <g id="Group-40" transform="translate(558.000000, 1775.000000)">
                <polygon id="Fill-1" fill="#FAB81B" points="43.42781 26.1324982 30 21.8496094 16.6572266 17.3515625 0.0830078125 15 0.0830078125 30 2.9998 46 2.9998 127.0678 15.4308 158.4028 38.3848 168.3178 312.0378 168.0978 319.6978 160.2038 319.6978 60.0858 295.4738 30.6488 85.9538 25.7068 52.0608 26.1324982"></polygon>
                <polygon id="Fill-2" fill="#FEFEFE" points="24.9211 73.2419 24.9211 96.0759 36.1781 96.0759 36.3201 90.6589 30.4791 90.9289 30.7621 73.2419"></polygon>
                <polygon id="Fill-3" fill="#FEFEFE" points="38.9059 73.2419 38.9059 96.0759 43.7649 96.0759 44.4299 86.6549 44.4299 73.2419"></polygon>
                <g id="Group-39" transform="translate(3.000000, 0.318000)">
                    <path d="M43.2077,72.9239 C43.2077,72.9239 42.7687,78.0229 43.2077,78.0229 C43.6467,78.0229 49.9647,78.4659 49.9647,78.4659 L49.9647,84.3409 C49.9647,84.3409 49.7437,95.3149 49.9647,95.3149 L56.0617,95.3149 L55.5077,78.3559 L60.9387,78.4659 L60.9387,73.4779 L43.2077,72.9239 Z" id="Fill-4" fill="#FEFEFE"></path>
                    <path d="M63.821,73.3673 C63.821,73.3673 63.156,94.6503 63.821,94.6503 L77.234,94.6503 L77.234,89.1073 L68.144,88.5533 L67.701,86.3363 L76.014,85.8933 L76.014,81.7913 L68.033,81.3483 L68.033,78.2443 L77.234,78.1343 L77.234,73.7003 L63.821,73.3673 Z" id="Fill-6" fill="#FEFEFE"></path>
                    <path d="M91.5729,73.6998 C91.5729,73.6998 90.9079,94.9828 91.5729,94.9828 L104.9849,94.9828 L104.9849,89.4398 L95.8959,88.8858 L95.4519,86.6688 L103.7659,86.2258 L103.7659,82.1238 L95.7849,81.6808 L95.7849,78.5768 L104.9849,78.4668 L104.9849,74.0328 L91.5729,73.6998 Z" id="Fill-8" fill="#FEFEFE"></path>
                    <path d="M282.8845,106.3175 C282.8845,106.3175 282.2195,127.6005 282.8845,127.6005 L296.2965,127.6005 L296.2965,122.0585 L287.2075,121.5035 L286.7645,119.2865 L295.0775,118.8435 L295.0775,114.7425 L287.0965,114.2985 L287.0965,111.1945 L296.2965,111.0845 L296.2965,106.6505 L282.8845,106.3175 Z" id="Fill-10" fill="#FEFEFE"></path>
                    <path d="M210.2155,73.315 C210.2155,73.315 209.5505,94.597 210.2155,94.597 L223.6275,94.597 L223.6275,89.055 L214.5385,88.501 L214.0955,86.284 L222.4085,85.84 L222.4085,81.739 L214.4275,81.296 L214.4275,78.192 L223.6275,78.081 L223.6275,73.648 L210.2155,73.315 Z" id="Fill-12" fill="#FEFEFE"></path>
                    <path d="M102.1677,106.3175 C102.1677,106.3175 101.5027,127.6005 102.1677,127.6005 L115.5807,127.6005 L115.5807,122.0585 L106.4907,121.5035 L106.0477,119.2865 L114.3607,118.8435 L114.3607,114.7425 L106.3797,114.2985 L106.3797,111.1945 L115.5807,111.0845 L115.5807,106.6505 L102.1677,106.3175 Z" id="Fill-14" fill="#FEFEFE"></path>
                    <path d="M157.5163,105.2647 L150.6403,105.2647 L148.6483,107.8137 L146.5423,111.4727 L149.5353,115.0187 L153.8583,116.9837 L156.7403,119.1207 L155.7433,122.8897 L153.0823,122.7787 L147.9563,120.9817 L144.9913,124.4407 C144.9913,124.4407 147.9833,128.0987 148.4273,128.0987 C148.8703,128.0987 158.9573,128.6537 158.9573,128.6537 L162.7263,124.6627 L162.7263,118.6777 L160.8423,115.2407 L156.2973,113.1347 L154.3143,111.6267 L155.6703,109.8087 L156.9623,109.9197 L159.7763,111.2567 L162.1723,107.1487 L157.5163,105.2647 Z" id="Fill-16" fill="#FEFEFE"></path>
                    <polygon id="Fill-18" fill="#FEFEFE" points="176.673 113.314 171.261 105.854 166.495 105.854 165.98 120.852 166.493 128.064 172.778 128.064 172.986 119.147 175.922 121.568 179.512 119.105 179.991 127.863 186.224 126.877 186.226 105.821 181.348 105.855"></polygon>
                    <polygon id="Fill-20" fill="#FEFEFE" points="31.6755 112.8638 26.2635 105.4038 21.4975 105.4038 20.9825 120.4018 21.4955 127.6138 27.7805 127.6138 27.9885 118.6958 30.9245 121.1178 34.5145 118.6538 34.9935 127.4128 41.2265 126.4268 41.2285 105.3708 36.3515 105.4048"></polygon>
                    <mask id="mask-2" fill="white">
                        <use xlink:href="#path-1"></use>
                    </mask>
                    <g id="Clip-23"></g>
                    <path d="M195.648,112.802 L196.811,112.802 L196.811,111.215 L195.648,111.215 L195.648,112.802 Z M203.297,112.47 L200.303,105.708 C200.303,105.708 192.433,105.376 192.1,105.265 C191.768,105.154 190.105,112.137 190.105,112.137 L187.778,127.656 L193.985,127.656 L195.426,116.682 L197.31,116.682 L199.195,128.099 L205.845,128.653 L203.297,112.47 Z" id="Fill-22" fill="#FEFEFE" mask="url(#mask-2)"></path>
                    <path d="M253.4792,113.3018 L252.3152,113.3018 L252.3152,111.8328 L253.4792,111.7148 L253.4792,113.3018 Z M258.9072,114.3538 L256.9712,106.2078 C256.9712,106.2078 249.1012,105.8748 248.7682,105.7638 C248.4362,105.6538 246.7732,112.6368 246.7732,112.6368 L244.7522,121.1158 L245.1412,127.7688 L250.6532,128.1558 L252.0932,117.1808 L253.9782,117.1808 L256.3572,126.8428 L262.0832,127.3888 L258.9072,114.3538 Z" id="Fill-24" fill="#FEFEFE" mask="url(#mask-2)"></path>
                    <path d="M215.7165,114.0953 L215.0545,113.9223 L215.0985,110.4033 L217.1125,110.4443 C217.1125,110.4443 217.8935,110.9163 217.9025,110.9993 C217.9105,111.0823 218.1375,111.9073 218.1485,111.9823 C218.1585,112.0563 218.0125,113.1123 218.0125,113.1123 L217.1705,113.9383 L215.7165,114.0953 Z M218.3635,126.8623 L225.6955,127.1193 L220.7995,116.8063 L222.8375,115.6113 L223.9455,113.3143 L224.1245,110.0363 L222.9685,107.1923 L220.5865,106.2293 L208.9605,105.8213 L208.3665,127.5423 L214.7955,127.7683 L215.0365,119.1883 L215.3835,119.2703 L218.3635,126.8623 Z" id="Fill-25" fill="#FEFEFE" mask="url(#mask-2)"></path>
                    <path d="M177.967,80.185 L179.131,80.185 L179.131,78.598 L177.967,78.598 L177.967,80.185 Z M185.616,79.853 L182.623,73.091 C182.623,73.091 174.753,72.758 174.42,72.648 C174.088,72.537 172.425,79.52 172.425,79.52 L170.097,95.039 L176.304,95.039 L177.745,84.065 L179.63,84.065 L181.514,95.482 L188.165,96.036 L185.616,79.853 Z" id="Fill-26" fill="#FEFEFE" mask="url(#mask-2)"></path>
                    <path d="M197.7282,81.6417 L197.0662,81.4687 L197.1102,77.9497 L199.1242,77.9897 C199.1242,77.9897 199.9052,78.4627 199.9142,78.5457 C199.9222,78.6287 200.1492,79.4537 200.1602,79.5287 C200.1702,79.6027 200.0242,80.6587 200.0242,80.6587 L199.1822,81.4847 L197.7282,81.6417 Z M200.3752,94.4087 L207.7072,94.6657 L202.8102,84.3527 L204.8492,83.1577 L205.9572,80.8607 L206.1362,77.5827 L204.9802,74.7377 L202.5972,73.7757 L190.9712,73.3677 L190.3782,95.0887 L196.8072,95.3147 L197.0472,86.7347 L197.3942,86.8167 L200.3752,94.4087 Z" id="Fill-27" fill="#FEFEFE" mask="url(#mask-2)"></path>
                    <path d="M271.0602,114.9556 L270.3902,114.8196 L270.2412,111.3036 L272.2552,111.2326 C272.2552,111.2326 273.0602,111.6626 273.0742,111.7446 C273.0862,111.8276 273.3582,112.6386 273.3732,112.7126 C273.3882,112.7866 273.2992,113.8486 273.2992,113.8486 L272.5032,114.7196 L271.0602,114.9556 Z M274.4042,127.5586 L281.6242,127.6816 L277.6892,119.6826 L276.2852,117.3846 L278.2542,116.0796 L279.2342,113.7246 L279.2332,110.4426 L277.9232,107.6646 L275.4922,106.8346 L263.8612,107.0646 L264.3802,127.3496 L270.8292,128.0126 L270.6612,120.0786 L271.0112,120.1416 L272.4012,123.2196 L274.4042,127.5586 Z" id="Fill-28" fill="#FEFEFE" mask="url(#mask-2)"></path>
                    <path d="M227.1286,106.5948 C226.9066,106.9278 226.3526,109.5878 226.3526,109.5878 L226.3526,112.0088 L232.2276,112.2488 C232.2276,112.2488 231.3406,126.9908 231.6736,126.9908 L238.3236,126.9908 L238.8996,112.6998 L243.8656,112.2488 L244.7526,107.3708 L241.8706,106.5948 L227.1286,106.5948 Z" id="Fill-29" fill="#FEFEFE" mask="url(#mask-2)"></path>
                    <path d="M117.3171,106.7608 C117.0951,107.0938 116.5411,109.7538 116.5411,109.7538 L116.5411,112.1748 L122.4161,112.4158 C122.4161,112.4158 121.5291,127.1568 121.8611,127.1568 L128.5121,127.1568 L129.0881,112.8658 L134.0551,112.4158 L134.9421,107.5368 L132.0601,106.7608 L117.3171,106.7608 Z" id="Fill-30" fill="#FEFEFE" mask="url(#mask-2)"></path>
                    <polyline id="Fill-31" fill="#FEFEFE" mask="url(#mask-2)" points="107.2023 93.7598 108.2003 77.9488 109.5303 73.3668 114.8503 73.6998 120.6703 84.3418 121.6673 73.6998 127.8193 73.6998 127.8193 94.8678 120.6703 95.3148 114.0873 85.8888 114.8503 93.7598 108.8653 94.0928"></polyline>
                    <polygon id="Fill-32" fill="#FEFEFE" mask="url(#mask-2)" points="131.8229 73.3673 131.8229 94.5973 139.5419 94.5973 139.5419 86.2813 146.4419 93.9293 149.9339 93.9293 153.4259 93.9293 145.1999 82.6233 152.4279 75.4733 154.0909 73.7003 145.1999 73.3153 139.2669 79.1693 139.1259 73.3673"></polygon>
                    <polygon id="Fill-33" fill="#FEFEFE" mask="url(#mask-2)" points="81.923 106.2149 80.814 122.1329 81.923 127.4449 87.77 127.7029 87.77 119.3869 94.67 127.0349 98.162 127.0349 101.653 127.0349 93.428 115.7289 100.656 108.5789 100.68 106.7349 93.428 106.4209 87.495 112.2759 87.354 106.4729"></polygon>
                    <path d="M155.6594,73.3653 L155.6804,81.0283 C155.6804,81.0283 155.0904,95.0633 155.6804,95.2393 C156.2724,95.4143 168.2474,95.2393 168.2474,95.2393 L168.7694,93.1333 L168.2414,88.8693 L162.2864,88.9233 L162.4464,73.3653 L155.6594,73.3653 Z" id="Fill-34" fill="#FEFEFE" mask="url(#mask-2)"></path>
                    <path d="M42.8464,105.8199 L44.7744,112.5649 L47.3974,115.7359 L47.3974,120.5569 C47.3974,120.5569 47.4594,127.9409 47.3974,127.6569 C47.3354,127.3739 54.2514,127.6569 54.2514,127.6569 L54.2514,122.0539 L54.7504,115.7359 L58.1434,113.3589 L61.1054,107.5879 L54.7504,105.8939 L52.6564,110.4609 L50.6644,112.3059 L49.8294,105.3199 L42.8464,105.8199 Z" id="Fill-35" fill="#FEFEFE" mask="url(#mask-2)"></path>
                    <path d="M76.7228,108.0626 L73.2578,106.1236 C73.2578,106.1236 70.8178,106.0236 69.8688,106.1286 C68.9198,106.2336 64.4558,107.3976 64.4558,107.3976 L61.9068,110.7486 L60.9388,114.7136 L61.3548,119.2226 L61.9068,123.5256 C61.9068,123.5256 66.2598,127.0896 67.4238,127.3026 C68.5878,127.5166 73.7418,127.1436 74.2408,127.3026 C74.7398,127.4616 78.8628,125.9776 78.8628,125.9776 L77.1328,120.5166 L73.6558,121.1976 L70.5678,121.3636 L68.4208,118.5376 L68.5878,115.3786 L70.5678,112.8356 L75.4478,113.6286 L76.7228,108.0626 Z" id="Fill-36" fill="#FEFEFE" mask="url(#mask-2)"></path>
                    <polygon id="Fill-37" fill="#FEFEFE" mask="url(#mask-2)" points="228.4313 90.7701 226.9163 91.4351 226.9163 93.4311 229.6023 94.3141 231.1473 92.6841 230.0763 90.7701"></polygon>
                    <polygon id="Fill-38" fill="#FEFEFE" mask="url(#mask-2)" points="301.0554 124.7213 299.9104 126.0083 299.9104 127.6713 301.9064 128.4093 303.9844 127.7633 303.9844 125.5093 303.3194 124.4383"></polygon>
                </g>
            </g>
        </g>
    </g>
</svg>