<svg id="Lager_1" data-name="Lager 1" xmlns="http://www.w3.org/2000/svg" viewBox="0 0 310.1 269.2"><title>Kattux-start-head</title><path d="M40.84-130l-2.68-35.6L11.5-139.46l-22.66,23,6,60.14,26.81,52,52.7,65.55-1.1,5.91-34.38,14,.65.83L60,92.44l-.67,1.37L36,96.94,58,117.09,68.89,227.57l11.48,4.8,42.77-38.49,42.16.93,40.6,37.38,13.46-3.73,14.71-111.54L260.13,92,233.8,90.56l22.32-13.77-29.45-2.67-9.86-11.07.3-2.38,88.1-82,16.11-59L293.44-139.6l-11.91-4L266.17-95.35l7.13,13.5,3.25,9.32L274.61-67,252.09-51.12l29.44-92.5L264-254.86l-24.52-25.85,9.5-26.3-12.52-9-11.89,5-3.14-1.14L216-318.59l-12-1.61L190.5-309.09l-22.67-4.16-8,22.59-48.87.57-48.79-33-1.82,1.44-2.09,7.29-2.42,1.2L32.69-315l-3.43,5.81-3.69,0-3.46,3.38,5.35,13.37,34.39,25.27L26.57-200.4l25,123.1H51L33.62-99.58l2.54-16.87L40.84-130Zm62.8,323.27L84.25,211l-7.63-3.37-3.41-33,1.05-2.4,9.25,7.1.26,2.5-5.83,7.59,12.34-4.72L83,194.42l15.34-6,4.35,2.34.91,2.48Zm109.62,11-2,4.38-8,2.73-18.59-17.29,1-3,3.86-1.68,13.87,7.36.27-.54L197,187.79l.42-.6,12.23,5.06-4.86-6.7,1.17-6.74,8.16-6.37-.85,31.81ZM226,83.79l1.64-.47-9.94,12.26,14.25-3,.5.62-12.51,10.72-1.26,23.28-22,31.87-42.25-15.92-4.79-26.61,4-11.52,3.14-3-23.88-.51,5.07,7.69-1.75,32.65-19.94,18.67L74.82,139.47,70,97.12l-9.64-9.19,12.07,2.5-7.66-9.78,8.63,2.59,68.26-36.52,72.8,39.37L226,83.79ZM183.78-309.76l8,5,16-9,9.12,4.22,3.37,4.25,14.33-3.18,8,10.58-8.65,13.78-64.7-.28L165.47-297l18.31-12.8ZM49-283.21,32.25-295.26l-2.47-5.65,1.52-2.3,7.69,2,4.29,4.82,1.55.58-.32-1.8-4.65-5.62,2.91-7.89,20.73,8.14.61-.32-.45-10,2.86-2.07,39.62,30.62-.74,2.88-31.6,7.92L49-283.21ZM47-151.46l-6.11-52,16-46.22,81.72-25,.05.5L241-264.06l29.33,49.25L216-7.1,194-4.28,157.56-24,91.14-15.85,71.57-29,47-151.46Z"/><polygon points="176.25 106.52 170.96 107.09 166.87 110.49 165.94 115.5 167.72 120.79 172.09 124.22 177.34 125.03 183 122.67 186.1 116.2 186.02 112.36 184 107.72 180.05 106.53 176.25 106.52"/><polygon points="107.64 106.53 102.35 107.11 97.61 114.08 99.11 120.81 103.48 124.24 108.73 125.05 114.4 122.69 117.42 117.84 116.19 111.71 114.36 106.57 107.64 106.53"/><polygon points="155.04 92.83 145.56 87.36 134.26 93.9 135.16 96.3 154.59 96.56 155.04 92.83 155.04 92.83"/></svg>